<svg width="14" height="15" viewBox="0 0 14 15" fill="none" xmlns="http://www.w3.org/2000/svg">
<path fill-rule="evenodd" clip-rule="evenodd" d="M13.125 12.5625C13.125 13.7706 12.1456 14.75 10.9375 14.75H3.06249C1.85438 14.75 0.875 13.7706 0.875 12.5625V5.12499H3.49999V4.24999C3.49999 2.32007 5.07007 0.75 6.99999 0.75C8.92988 0.75 10.5 2.32007 10.5 4.24999V5.12499H13.125V12.5625ZM5.24999 4.24999V5.12499H8.74998V4.24999C8.74998 3.28503 7.96494 2.5 6.99999 2.5C6.03503 2.5 5.24999 3.28503 5.24999 4.24999ZM9.62498 7.53123C9.26254 7.53123 8.96873 7.23742 8.96873 6.87499C8.96873 6.51255 9.26254 6.21874 9.62498 6.21874C9.98742 6.21874 10.2812 6.51255 10.2812 6.87499C10.2812 7.23742 9.98742 7.53123 9.62498 7.53123ZM3.71874 6.87499C3.71874 7.23742 4.01255 7.53123 4.37499 7.53123C4.73743 7.53123 5.03124 7.23742 5.03124 6.87499C5.03124 6.51255 4.73743 6.21874 4.37499 6.21874C4.01255 6.21874 3.71874 6.51255 3.71874 6.87499Z" fill="#1B1D21"/>
</svg>
