<svg width="13" height="15" viewBox="0 0 13 15" fill="none" xmlns="http://www.w3.org/2000/svg">
<path fill-rule="evenodd" clip-rule="evenodd" d="M9.99998 4.47045C9.99998 6.40365 8.43319 7.97044 6.49999 7.97044C4.56678 7.97044 2.99999 6.40365 2.99999 4.47045C2.99999 2.53725 4.56678 0.970459 6.49999 0.970459C8.43319 0.970459 9.99998 2.53725 9.99998 4.47045ZM12.625 13.6579C12.625 14.3825 12.0371 14.9704 11.3125 14.9704H1.6875C0.962889 14.9704 0.375 14.3825 0.375 13.6579V12.5204C0.375 10.4915 2.0211 8.84544 4.05 8.84544H4.50662C5.11641 9.12435 5.78905 9.28294 6.49999 9.28294C7.21092 9.28294 7.88632 9.12435 8.49335 8.84544H8.94997C10.9789 8.84544 12.625 10.4915 12.625 12.5204V13.6579Z" fill="#1B1D21"/>
</svg>
